<svg class="marks" width="855" height="599" viewBox="0 0 855 599" xmlns="http://www.w3.org/2000/svg" xmlns:xlink="http://www.w3.org/1999/xlink"><g transform="translate(50,11)"><g class="mark-group role-frame root"><g transform="translate(0,0)"><path class="background" d="M0.5,0.5h800v550h-800Z" style="fill: transparent; stroke: rgb(221, 221, 221);"/><g><g class="mark-group role-axis"><g transform="translate(0.5,550.5)"><path class="background" d="M0,0h0v0h0Z" style="pointer-events: none; fill: none;"/><g><g class="mark-rule role-axis-grid" style="pointer-events: none;"><line transform="translate(80,-550)" x2="0" y2="550" style="fill: none; stroke: rgb(221, 221, 221); stroke-width: 1; opacity: 1;"/><line transform="translate(240,-550)" x2="0" y2="550" style="fill: none; stroke: rgb(221, 221, 221); stroke-width: 1; opacity: 1;"/><line transform="translate(400,-550)" x2="0" y2="550" style="fill: none; stroke: rgb(221, 221, 221); stroke-width: 1; opacity: 1;"/><line transform="translate(560,-550)" x2="0" y2="550" style="fill: none; stroke: rgb(221, 221, 221); stroke-width: 1; opacity: 1;"/><line transform="translate(720,-550)" x2="0" y2="550" style="fill: none; stroke: rgb(221, 221, 221); stroke-width: 1; opacity: 1;"/></g></g><path class="foreground" d="" style="pointer-events: none; display: none; fill: none;"/></g></g><g class="mark-group role-axis"><g transform="translate(0.5,0.5)"><path class="background" d="M0,0h0v0h0Z" style="pointer-events: none; fill: none;"/><g><g class="mark-rule role-axis-grid" style="pointer-events: none;"><line transform="translate(0,550)" x2="800" y2="0" style="fill: none; stroke: rgb(221, 221, 221); stroke-width: 1; opacity: 1;"/><line transform="translate(0,511)" x2="800" y2="0" style="fill: none; stroke: rgb(221, 221, 221); stroke-width: 1; opacity: 1;"/><line transform="translate(0,471)" x2="800" y2="0" style="fill: none; stroke: rgb(221, 221, 221); stroke-width: 1; opacity: 1;"/><line transform="translate(0,432)" x2="800" y2="0" style="fill: none; stroke: rgb(221, 221, 221); stroke-width: 1; opacity: 1;"/><line transform="translate(0,393)" x2="800" y2="0" style="fill: none; stroke: rgb(221, 221, 221); stroke-width: 1; opacity: 1;"/><line transform="translate(0,354)" x2="800" y2="0" style="fill: none; stroke: rgb(221, 221, 221); stroke-width: 1; opacity: 1;"/><line transform="translate(0,314)" x2="800" y2="0" style="fill: none; stroke: rgb(221, 221, 221); stroke-width: 1; opacity: 1;"/><line transform="translate(0,275)" x2="800" y2="0" style="fill: none; stroke: rgb(221, 221, 221); stroke-width: 1; opacity: 1;"/><line transform="translate(0,236)" x2="800" y2="0" style="fill: none; stroke: rgb(221, 221, 221); stroke-width: 1; opacity: 1;"/><line transform="translate(0,196)" x2="800" y2="0" style="fill: none; stroke: rgb(221, 221, 221); stroke-width: 1; opacity: 1;"/><line transform="translate(0,157)" x2="800" y2="0" style="fill: none; stroke: rgb(221, 221, 221); stroke-width: 1; opacity: 1;"/><line transform="translate(0,118)" x2="800" y2="0" style="fill: none; stroke: rgb(221, 221, 221); stroke-width: 1; opacity: 1;"/><line transform="translate(0,79)" x2="800" y2="0" style="fill: none; stroke: rgb(221, 221, 221); stroke-width: 1; opacity: 1;"/><line transform="translate(0,39)" x2="800" y2="0" style="fill: none; stroke: rgb(221, 221, 221); stroke-width: 1; opacity: 1;"/><line transform="translate(0,0)" x2="800" y2="0" style="fill: none; stroke: rgb(221, 221, 221); stroke-width: 1; opacity: 1;"/></g></g><path class="foreground" d="" style="pointer-events: none; display: none; fill: none;"/></g></g><g class="mark-group role-scope pathgroup"><g transform="translate(0,0)"><path class="background" d="M0,0h800v550h-800Z" style="fill: none;"/><g><g class="mark-line role-mark marks"><path d="M80,453.75L240,292.67857142857144L400,231.78571428571425L560,170.89285714285714L720,1.9642857142857073" style="fill: none; stroke: rgb(76, 120, 168); stroke-width: 2;"/></g></g><path class="foreground" d="" style="display: none; fill: none;"/></g><g transform="translate(0,0)"><path class="background" d="M0,0h800v550h-800Z" style="fill: none;"/><g><g class="mark-line role-mark marks"><path d="M80,339.8214285714286L240,227.85714285714283L400,208.2142857142857L560,200.3571428571429L720,11.785714285714304" style="fill: none; stroke: rgb(245, 133, 24); stroke-width: 2;"/></g></g><path class="foreground" d="" style="display: none; fill: none;"/></g><g transform="translate(0,0)"><path class="background" d="M0,0h800v550h-800Z" style="fill: none;"/><g><g class="mark-line role-mark marks"><path d="M80,508.75L240,441.9642857142857L400,406.6071428571429L560,351.60714285714283L720,280.8928571428571" style="fill: none; stroke: rgb(228, 87, 86); stroke-width: 2;"/></g></g><path class="foreground" d="" style="display: none; fill: none;"/></g><g transform="translate(0,0)"><path class="background" d="M0,0h800v550h-800Z" style="fill: none;"/><g><g class="mark-line role-mark marks"><path d="M80,538.2142857142857L240,408.5714285714286L400,398.75L560,331.9642857142858L720,255.35714285714286" style="fill: none; stroke: rgb(114, 183, 178); stroke-width: 2;"/></g></g><path class="foreground" d="" style="display: none; fill: none;"/></g><g transform="translate(0,0)"><path class="background" d="M0,0h800v550h-800Z" style="fill: none;"/><g><g class="mark-line role-mark marks"><path d="M80,430.17857142857144L240,371.25L400,355.5357142857142L560,288.75L720,172.85714285714286" style="fill: none; stroke: rgb(84, 162, 75); stroke-width: 2;"/></g></g><path class="foreground" d="" style="display: none; fill: none;"/></g><g transform="translate(0,0)"><path class="background" d="M0,0h800v550h-800Z" style="fill: none;"/><g><g class="mark-line role-mark marks"><path d="M80,502.85714285714283L240,430.17857142857144L400,359.4642857142857L560,284.82142857142856L720,109.99999999999997" style="fill: none; stroke: rgb(238, 202, 59); stroke-width: 2;"/></g></g><path class="foreground" d="" style="display: none; fill: none;"/></g><g transform="translate(0,0)"><path class="background" d="M0,0h800v550h-800Z" style="fill: none;"/><g><g class="mark-line role-mark marks"><path d="M80,496.9642857142857L240,422.32142857142856L400,349.6428571428571L560,269.1071428571429L720,80.5357142857143" style="fill: none; stroke: rgb(178, 121, 162); stroke-width: 2;"/></g></g><path class="foreground" d="" style="display: none; fill: none;"/></g><g transform="translate(0,0)"><path class="background" d="M0,0h800v550h-800Z" style="fill: none;"/><g><g class="mark-line role-mark marks"><path d="M80,489.10714285714283L240,451.7857142857143L400,416.4285714285714L560,379.10714285714283L720,94.28571428571425" style="fill: none; stroke: rgb(255, 157, 166); stroke-width: 2;"/></g></g><path class="foreground" d="" style="display: none; fill: none;"/></g><g transform="translate(0,0)"><path class="background" d="M0,0h800v550h-800Z" style="fill: none;"/><g><g class="mark-line role-mark marks"><path d="M80,449.82142857142856L240,379.10714285714283L400,330L560,190.53571428571428L720,11.785714285714304" style="fill: none; stroke: rgb(157, 117, 93); stroke-width: 2;"/></g></g><path class="foreground" d="" style="display: none; fill: none;"/></g><g transform="translate(0,0)"><path class="background" d="M0,0h800v550h-800Z" style="fill: none;"/><g><g class="mark-line role-mark marks"><path d="M80,514.6428571428571L240,440L400,392.8571428571429L560,310.35714285714283L720,82.50000000000001" style="fill: none; stroke: rgb(186, 176, 172); stroke-width: 2;"/></g></g><path class="foreground" d="" style="display: none; fill: none;"/></g></g><g class="mark-group role-legend"><g transform="translate(18,18)"><path class="background" d="M0,0h383v177h-383Z" style="pointer-events: none; fill: none;"/><g><g class="mark-group role-legend-entry"><g transform="translate(0,19)"><path class="background" d="M0,0h0v0h0Z" style="pointer-events: none; fill: none;"/><g><g class="mark-group role-scope"><g transform="translate(0,0)"><path class="background" d="M0,0h382.1572265625v14h-382.1572265625Z" style="pointer-events: none; fill: none; opacity: 1;"/><g><g class="mark-symbol role-legend-symbol" style="pointer-events: none;"><path transform="translate(7,7)" d="M-5,0L5,0" style="fill: transparent; stroke: rgb(76, 120, 168); stroke-width: 1.5; opacity: 1;"/></g><g class="mark-text role-legend-label" style="pointer-events: none;"><text text-anchor="start" transform="translate(18,11)" style="font-family: sans-serif; font-size: 14px; fill: rgb(0, 0, 0); opacity: 1;">#1: Brain, disorder, cognitive, memory, neural, functional</text></g></g><path class="foreground" d="" style="pointer-events: none; display: none; fill: none;"/></g><g transform="translate(0,16)"><path class="background" d="M0,0h382.1572265625v14h-382.1572265625Z" style="pointer-events: none; fill: none; opacity: 1;"/><g><g class="mark-symbol role-legend-symbol" style="pointer-events: none;"><path transform="translate(7,7)" d="M-5,0L5,0" style="fill: transparent; stroke: rgb(245, 133, 24); stroke-width: 1.5; opacity: 1;"/></g><g class="mark-text role-legend-label" style="pointer-events: none;"><text text-anchor="start" transform="translate(18,11)" style="font-family: sans-serif; font-size: 14px; fill: rgb(0, 0, 0); opacity: 1;">#2: Cell, protein, gene, molecular, function, structure</text></g></g><path class="foreground" d="" style="pointer-events: none; display: none; fill: none;"/></g><g transform="translate(0,32)"><path class="background" d="M0,0h382.1572265625v14h-382.1572265625Z" style="pointer-events: none; fill: none; opacity: 1;"/><g><g class="mark-symbol role-legend-symbol" style="pointer-events: none;"><path transform="translate(7,7)" d="M-5,0L5,0" style="fill: transparent; stroke: rgb(228, 87, 86); stroke-width: 1.5; opacity: 1;"/></g><g class="mark-text role-legend-label" style="pointer-events: none;"><text text-anchor="start" transform="translate(18,11)" style="font-family: sans-serif; font-size: 14px; fill: rgb(0, 0, 0); opacity: 1;">#3: Motor, activity, movement, signal, stimulation</text></g></g><path class="foreground" d="" style="pointer-events: none; display: none; fill: none;"/></g><g transform="translate(0,48)"><path class="background" d="M0,0h382.1572265625v14h-382.1572265625Z" style="pointer-events: none; fill: none; opacity: 1;"/><g><g class="mark-symbol role-legend-symbol" style="pointer-events: none;"><path transform="translate(7,7)" d="M-5,0L5,0" style="fill: transparent; stroke: rgb(114, 183, 178); stroke-width: 1.5; opacity: 1;"/></g><g class="mark-text role-legend-label" style="pointer-events: none;"><text text-anchor="start" transform="translate(18,11)" style="font-family: sans-serif; font-size: 14px; fill: rgb(0, 0, 0); opacity: 1;">#4: Training program, Career development</text></g></g><path class="foreground" d="" style="pointer-events: none; display: none; fill: none;"/></g><g transform="translate(0,64)"><path class="background" d="M0,0h382.1572265625v14h-382.1572265625Z" style="pointer-events: none; fill: none; opacity: 1;"/><g><g class="mark-symbol role-legend-symbol" style="pointer-events: none;"><path transform="translate(7,7)" d="M-5,0L5,0" style="fill: transparent; stroke: rgb(84, 162, 75); stroke-width: 1.5; opacity: 1;"/></g><g class="mark-text role-legend-label" style="pointer-events: none;"><text text-anchor="start" transform="translate(18,11)" style="font-family: sans-serif; font-size: 14px; fill: rgb(0, 0, 0); opacity: 1;">#5: Genetic, gene, phenotype</text></g></g><path class="foreground" d="" style="pointer-events: none; display: none; fill: none;"/></g><g transform="translate(0,80)"><path class="background" d="M0,0h382.1572265625v14h-382.1572265625Z" style="pointer-events: none; fill: none; opacity: 1;"/><g><g class="mark-symbol role-legend-symbol" style="pointer-events: none;"><path transform="translate(7,7)" d="M-5,0L5,0" style="fill: transparent; stroke: rgb(238, 202, 59); stroke-width: 1.5; opacity: 1;"/></g><g class="mark-text role-legend-label" style="pointer-events: none;"><text text-anchor="start" transform="translate(18,11)" style="font-family: sans-serif; font-size: 14px; fill: rgb(0, 0, 0); opacity: 1;">#6: Cancer, cell, tumor,immune, Therapy</text></g></g><path class="foreground" d="" style="pointer-events: none; display: none; fill: none;"/></g><g transform="translate(0,96)"><path class="background" d="M0,0h382.1572265625v14h-382.1572265625Z" style="pointer-events: none; fill: none; opacity: 1;"/><g><g class="mark-symbol role-legend-symbol" style="pointer-events: none;"><path transform="translate(7,7)" d="M-5,0L5,0" style="fill: transparent; stroke: rgb(178, 121, 162); stroke-width: 1.5; opacity: 1;"/></g><g class="mark-text role-legend-label" style="pointer-events: none;"><text text-anchor="start" transform="translate(18,11)" style="font-family: sans-serif; font-size: 14px; fill: rgb(0, 0, 0); opacity: 1;">#7: Child, Mental health, Behavior, Social, intervention</text></g></g><path class="foreground" d="" style="pointer-events: none; display: none; fill: none;"/></g><g transform="translate(0,112)"><path class="background" d="M0,0h382.1572265625v14h-382.1572265625Z" style="pointer-events: none; fill: none; opacity: 1;"/><g><g class="mark-symbol role-legend-symbol" style="pointer-events: none;"><path transform="translate(7,7)" d="M-5,0L5,0" style="fill: transparent; stroke: rgb(255, 157, 166); stroke-width: 1.5; opacity: 1;"/></g><g class="mark-text role-legend-label" style="pointer-events: none;"><text text-anchor="start" transform="translate(18,11)" style="font-family: sans-serif; font-size: 14px; fill: rgb(0, 0, 0); opacity: 1;">#8: Imaging, MRI, cancer, detection</text></g></g><path class="foreground" d="" style="pointer-events: none; display: none; fill: none;"/></g><g transform="translate(0,128)"><path class="background" d="M0,0h382.1572265625v14h-382.1572265625Z" style="pointer-events: none; fill: none; opacity: 1;"/><g><g class="mark-symbol role-legend-symbol" style="pointer-events: none;"><path transform="translate(7,7)" d="M-5,0L5,0" style="fill: transparent; stroke: rgb(157, 117, 93); stroke-width: 1.5; opacity: 1;"/></g><g class="mark-text role-legend-label" style="pointer-events: none;"><text text-anchor="start" transform="translate(18,11)" style="font-family: sans-serif; font-size: 14px; fill: rgb(0, 0, 0); opacity: 1;">#9: Public health, community, big_data</text></g></g><path class="foreground" d="" style="pointer-events: none; display: none; fill: none;"/></g><g transform="translate(0,144)"><path class="background" d="M0,0h382.1572265625v14h-382.1572265625Z" style="pointer-events: none; fill: none; opacity: 1;"/><g><g class="mark-symbol role-legend-symbol" style="pointer-events: none;"><path transform="translate(7,7)" d="M-5,0L5,0" style="fill: transparent; stroke: rgb(186, 176, 172); stroke-width: 1.5; opacity: 1;"/></g><g class="mark-text role-legend-label" style="pointer-events: none;"><text text-anchor="start" transform="translate(18,11)" style="font-family: sans-serif; font-size: 14px; fill: rgb(0, 0, 0); opacity: 1;">#10: Risk, outcome, treatment, trial, EHR, decision support</text></g></g><path class="foreground" d="" style="pointer-events: none; display: none; fill: none;"/></g></g></g><path class="foreground" d="" style="pointer-events: none; display: none; fill: none;"/></g></g><g class="mark-text role-legend-title" style="pointer-events: none;"><text text-anchor="start" transform="translate(0,11)" style="font-family: sans-serif; font-size: 14px; font-weight: bold; fill: rgb(0, 0, 0); opacity: 1;">Topics</text></g></g><path class="foreground" d="" style="pointer-events: none; display: none; fill: none;"/></g></g><g class="mark-group role-axis"><g transform="translate(0.5,550.5)"><path class="background" d="M0,0h0v0h0Z" style="pointer-events: none; fill: none;"/><g><g class="mark-rule role-axis-tick" style="pointer-events: none;"><line transform="translate(80,0)" x2="0" y2="5" style="fill: none; stroke: rgb(136, 136, 136); stroke-width: 1; opacity: 1;"/><line transform="translate(240,0)" x2="0" y2="5" style="fill: none; stroke: rgb(136, 136, 136); stroke-width: 1; opacity: 1;"/><line transform="translate(400,0)" x2="0" y2="5" style="fill: none; stroke: rgb(136, 136, 136); stroke-width: 1; opacity: 1;"/><line transform="translate(560,0)" x2="0" y2="5" style="fill: none; stroke: rgb(136, 136, 136); stroke-width: 1; opacity: 1;"/><line transform="translate(720,0)" x2="0" y2="5" style="fill: none; stroke: rgb(136, 136, 136); stroke-width: 1; opacity: 1;"/></g><g class="mark-text role-axis-label" style="pointer-events: none;"><text text-anchor="middle" transform="translate(80,16)" style="font-family: sans-serif; font-size: 12px; fill: rgb(0, 0, 0); opacity: 1;">2014</text><text text-anchor="middle" transform="translate(240,16)" style="font-family: sans-serif; font-size: 12px; fill: rgb(0, 0, 0); opacity: 1;">2015</text><text text-anchor="middle" transform="translate(400,16)" style="font-family: sans-serif; font-size: 12px; fill: rgb(0, 0, 0); opacity: 1;">2016</text><text text-anchor="middle" transform="translate(560,16)" style="font-family: sans-serif; font-size: 12px; fill: rgb(0, 0, 0); opacity: 1;">2017</text><text text-anchor="middle" transform="translate(720,16)" style="font-family: sans-serif; font-size: 12px; fill: rgb(0, 0, 0); opacity: 1;">2018</text></g><g class="mark-text role-axis-title" style="pointer-events: none;"><text text-anchor="middle" transform="translate(400,31)" style="font-family: sans-serif; font-size: 12px; font-weight: bold; fill: rgb(0, 0, 0); opacity: 1;">Fiscal Year</text></g></g><path class="foreground" d="" style="pointer-events: none; display: none; fill: none;"/></g></g><g class="mark-group role-axis"><g transform="translate(0.5,0.5)"><path class="background" d="M0,0h0v0h0Z" style="pointer-events: none; fill: none;"/><g><g class="mark-rule role-axis-tick" style="pointer-events: none;"><line transform="translate(0,550)" x2="-5" y2="0" style="fill: none; stroke: rgb(136, 136, 136); stroke-width: 1; opacity: 1;"/><line transform="translate(0,511)" x2="-5" y2="0" style="fill: none; stroke: rgb(136, 136, 136); stroke-width: 1; opacity: 1;"/><line transform="translate(0,471)" x2="-5" y2="0" style="fill: none; stroke: rgb(136, 136, 136); stroke-width: 1; opacity: 1;"/><line transform="translate(0,432)" x2="-5" y2="0" style="fill: none; stroke: rgb(136, 136, 136); stroke-width: 1; opacity: 1;"/><line transform="translate(0,393)" x2="-5" y2="0" style="fill: none; stroke: rgb(136, 136, 136); stroke-width: 1; opacity: 1;"/><line transform="translate(0,354)" x2="-5" y2="0" style="fill: none; stroke: rgb(136, 136, 136); stroke-width: 1; opacity: 1;"/><line transform="translate(0,314)" x2="-5" y2="0" style="fill: none; stroke: rgb(136, 136, 136); stroke-width: 1; opacity: 1;"/><line transform="translate(0,275)" x2="-5" y2="0" style="fill: none; stroke: rgb(136, 136, 136); stroke-width: 1; opacity: 1;"/><line transform="translate(0,236)" x2="-5" y2="0" style="fill: none; stroke: rgb(136, 136, 136); stroke-width: 1; opacity: 1;"/><line transform="translate(0,196)" x2="-5" y2="0" style="fill: none; stroke: rgb(136, 136, 136); stroke-width: 1; opacity: 1;"/><line transform="translate(0,157)" x2="-5" y2="0" style="fill: none; stroke: rgb(136, 136, 136); stroke-width: 1; opacity: 1;"/><line transform="translate(0,118)" x2="-5" y2="0" style="fill: none; stroke: rgb(136, 136, 136); stroke-width: 1; opacity: 1;"/><line transform="translate(0,79)" x2="-5" y2="0" style="fill: none; stroke: rgb(136, 136, 136); stroke-width: 1; opacity: 1;"/><line transform="translate(0,39)" x2="-5" y2="0" style="fill: none; stroke: rgb(136, 136, 136); stroke-width: 1; opacity: 1;"/><line transform="translate(0,0)" x2="-5" y2="0" style="fill: none; stroke: rgb(136, 136, 136); stroke-width: 1; opacity: 1;"/></g><g class="mark-text role-axis-label" style="pointer-events: none;"><text text-anchor="end" transform="translate(-7,554)" style="font-family: sans-serif; font-size: 12px; fill: rgb(0, 0, 0); opacity: 1;">40</text><text text-anchor="end" transform="translate(-7,514.7142857142858)" style="font-family: sans-serif; font-size: 12px; fill: rgb(0, 0, 0); opacity: 1;">60</text><text text-anchor="end" transform="translate(-7,475.42857142857144)" style="font-family: sans-serif; font-size: 12px; fill: rgb(0, 0, 0); opacity: 1;">80</text><text text-anchor="end" transform="translate(-7,436.1428571428571)" style="font-family: sans-serif; font-size: 12px; fill: rgb(0, 0, 0); opacity: 1;">100</text><text text-anchor="end" transform="translate(-7,396.8571428571429)" style="font-family: sans-serif; font-size: 12px; fill: rgb(0, 0, 0); opacity: 1;">120</text><text text-anchor="end" transform="translate(-7,357.57142857142856)" style="font-family: sans-serif; font-size: 12px; fill: rgb(0, 0, 0); opacity: 1;">140</text><text text-anchor="end" transform="translate(-7,318.2857142857143)" style="font-family: sans-serif; font-size: 12px; fill: rgb(0, 0, 0); opacity: 1;">160</text><text text-anchor="end" transform="translate(-7,279)" style="font-family: sans-serif; font-size: 12px; fill: rgb(0, 0, 0); opacity: 1;">180</text><text text-anchor="end" transform="translate(-7,239.71428571428572)" style="font-family: sans-serif; font-size: 12px; fill: rgb(0, 0, 0); opacity: 1;">200</text><text text-anchor="end" transform="translate(-7,200.42857142857142)" style="font-family: sans-serif; font-size: 12px; fill: rgb(0, 0, 0); opacity: 1;">220</text><text text-anchor="end" transform="translate(-7,161.14285714285714)" style="font-family: sans-serif; font-size: 12px; fill: rgb(0, 0, 0); opacity: 1;">240</text><text text-anchor="end" transform="translate(-7,121.85714285714286)" style="font-family: sans-serif; font-size: 12px; fill: rgb(0, 0, 0); opacity: 1;">260</text><text text-anchor="end" transform="translate(-7,82.5714285714286)" style="font-family: sans-serif; font-size: 12px; fill: rgb(0, 0, 0); opacity: 1;">280</text><text text-anchor="end" transform="translate(-7,43.28571428571427)" style="font-family: sans-serif; font-size: 12px; fill: rgb(0, 0, 0); opacity: 1;">300</text><text text-anchor="end" transform="translate(-7,4)" style="font-family: sans-serif; font-size: 12px; fill: rgb(0, 0, 0); opacity: 1;">320</text></g><g class="mark-rule role-axis-domain" style="pointer-events: none;"><line transform="translate(0,550)" x2="0" y2="-550" style="fill: none; stroke: rgb(136, 136, 136); stroke-width: 1; opacity: 1;"/></g><g class="mark-text role-axis-title" style="pointer-events: none;"><text text-anchor="middle" transform="translate(-31.021484375,275) rotate(-90) translate(0,-3)" style="font-family: sans-serif; font-size: 12px; font-weight: bold; fill: rgb(0, 0, 0); opacity: 1;">Number of topics</text></g></g><path class="foreground" d="" style="pointer-events: none; display: none; fill: none;"/></g></g></g><path class="foreground" d="" style="display: none; fill: none;"/></g></g></g></svg>