<svg viewBox="0,0,954,982" xmlns="http://www.w3.org/2000/svg" xmlns:xlink="http://www.w3.org/1999/xlink"><g fill-opacity="0.6"><rect fill="#9c755f" height="43" x="0" y="21" width="948"/><rect fill="#e15759" height="43" x="0" y="69" width="880.5866666666667"/><rect fill="#ff9da7" height="43" x="0" y="117" width="876.3733333333333"/><rect fill="#bab0ab" height="43" x="0" y="165" width="741.5466666666667"/><rect fill="#edc949" height="43" x="0" y="213" width="492.96000000000004"/><rect fill="#af7aa1" height="43" x="0" y="261" width="459.25333333333333"/><rect fill="#9c755f" height="43" x="0" y="309" width="450.82666666666665"/><rect fill="#4e79a7" height="43" x="0" y="357" width="400.26666666666665"/><rect fill="#e15759" height="43" x="0" y="405" width="353.92"/><rect fill="#f28e2c" height="43" x="0" y="453" width="311.7866666666667"/><rect fill="#f28e2c" height="43" x="0" y="501" width="240.16000000000003"/><rect fill="#59a14f" height="43" x="0" y="549" width="235.94666666666666"/><rect fill="#edc949" height="43" x="0" y="597" width="231.73333333333332"/><rect fill="#af7aa1" height="43" x="0" y="645" width="214.88"/><rect fill="#76b7b2" height="43" x="0" y="693" width="189.60000000000002"/><rect fill="#ff9da7" height="43" x="0" y="741" width="126.39999999999999"/><rect fill="#f28e2c" height="43" x="0" y="789" width="109.54666666666667"/><rect fill="#76b7b2" height="43" x="0" y="837" width="109.54666666666667"/><rect fill="#bab0ab" height="43" x="0" y="885" width="75.84"/><rect fill="#59a14f" height="43" x="0" y="933" width="75.84"/></g><g transform="translate(0,16)" fill="none" font-size="10" font-family="sans-serif" text-anchor="middle"><g class="tick" opacity="1" transform="translate(0.5,0)"><line stroke="currentColor" y2="964.8000000000001"/></g><g class="tick" opacity="1" transform="translate(211.1666717529297, 0)"><line stroke="white" y2="964.8000000000001"/><text fill="currentColor" y="-3" dy="0em">50</text></g><g class="tick" opacity="1" transform="translate(421.8333435058594, 0)"><line stroke="white" y2="964.8000000000001"/><text fill="currentColor" y="-3" dy="0em">100</text></g><g class="tick" opacity="1" transform="translate(632.5, 0)"><line stroke="white" y2="964.8000000000001"/><text fill="currentColor" y="-3" dy="0em">150</text></g><g class="tick" opacity="1" transform="translate(843.1666870117188, 0)"><line stroke="white" y2="964.8000000000001"/><text fill="currentColor" y="-3" dy="0em">200</text></g></g><g text-anchor="end" style="font-style: ; font-variant-caps: ; font-variant-ligatures: ; font-variant-numeric: tabular-nums; font-variant-east-asian: ; font-weight: ; font-stretch: ; font-size: ; line-height: ; font-family: ;"><text transform="translate(948, 21)" y="21.5" x="-6" dy="-0.25em">NIMH<tspan fill-opacity="0.7" font-weight="normal" x="-6" dy="1.15em">225</tspan></text><text transform="translate(880.586669921875, 69)" y="21.5" x="-6" dy="-0.25em">NCI<tspan fill-opacity="0.7" font-weight="normal" x="-6" dy="1.15em">209</tspan></text><text transform="translate(876.3733520507812, 117)" y="21.5" x="-6" dy="-0.25em">NIGMS<tspan fill-opacity="0.7" font-weight="normal" x="-6" dy="1.15em">208</tspan></text><text transform="translate(741.5466918945312, 165)" y="21.5" x="-6" dy="-0.25em">NINDS<tspan fill-opacity="0.7" font-weight="normal" x="-6" dy="1.15em">176</tspan></text><text transform="translate(492.9599914550781, 213)" y="21.5" x="-6" dy="-0.25em">NHLBI<tspan fill-opacity="0.7" font-weight="normal" x="-6" dy="1.15em">117</tspan></text><text transform="translate(459.2533264160156, 261)" y="21.5" x="-6" dy="-0.25em">NIA<tspan fill-opacity="0.7" font-weight="normal" x="-6" dy="1.15em">109</tspan></text><text transform="translate(450.82666015625, 309)" y="21.5" x="-6" dy="-0.25em">NIAID<tspan fill-opacity="0.7" font-weight="normal" x="-6" dy="1.15em">107</tspan></text><text transform="translate(400.26666259765625, 357)" y="21.5" x="-6" dy="-0.25em">NIBIB<tspan fill-opacity="0.7" font-weight="normal" x="-6" dy="1.15em">95</tspan></text><text transform="translate(353.9200134277344, 405)" y="21.5" x="-6" dy="-0.25em">NIDA<tspan fill-opacity="0.7" font-weight="normal" x="-6" dy="1.15em">84</tspan></text><text transform="translate(311.7866516113281, 453)" y="21.5" x="-6" dy="-0.25em">NICHD<tspan fill-opacity="0.7" font-weight="normal" x="-6" dy="1.15em">74</tspan></text><text transform="translate(240.16000366210938, 501)" y="21.5" x="-6" dy="-0.25em">NLM<tspan fill-opacity="0.7" font-weight="normal" x="-6" dy="1.15em">57</tspan></text><text transform="translate(235.94667053222656, 549)" y="21.5" x="-6" dy="-0.25em">NHGRI<tspan fill-opacity="0.7" font-weight="normal" x="-6" dy="1.15em">56</tspan></text><text transform="translate(231.73333740234375, 597)" y="21.5" x="-6" dy="-0.25em">NIDDK<tspan fill-opacity="0.7" font-weight="normal" x="-6" dy="1.15em">55</tspan></text><text transform="translate(214.8800048828125, 645)" y="21.5" x="-6" dy="-0.25em">NIEHS<tspan fill-opacity="0.7" font-weight="normal" x="-6" dy="1.15em">51</tspan></text><text transform="translate(189.60000610351562, 693)" y="21.5" x="-6" dy="-0.25em">NIDCD<tspan fill-opacity="0.7" font-weight="normal" x="-6" dy="1.15em">45</tspan></text><text transform="translate(126.4000015258789, 741)" y="21.5" x="-6" dy="-0.25em">NIAAA<tspan fill-opacity="0.7" font-weight="normal" x="-6" dy="1.15em">30</tspan></text><text transform="translate(109.54666900634766, 789)" y="21.5" x="-6" dy="-0.25em">NCATS<tspan fill-opacity="0.7" font-weight="normal" x="-6" dy="1.15em">26</tspan></text><text transform="translate(109.54666900634766, 837)" y="21.5" x="-6" dy="-0.25em">NEI<tspan fill-opacity="0.7" font-weight="normal" x="-6" dy="1.15em">26</tspan></text><text transform="translate(75.83999633789062, 885)" y="21.5" x="-6" dy="-0.25em">NIAMS<tspan fill-opacity="0.7" font-weight="normal" x="-6" dy="1.15em">18</tspan></text><text transform="translate(75.83999633789062, 933)" y="21.5" x="-6" dy="-0.25em">NIDCR<tspan fill-opacity="0.7" font-weight="normal" x="-6" dy="1.15em">18</tspan></text></g><text text-anchor="end" x="948" y="954.4000000000001" dy="0.32em" style="font-style: ; font-variant-caps: ; font-variant-ligatures: ; font-variant-numeric: tabular-nums; font-variant-east-asian: ; font-weight: ; font-stretch: ; font-size: ; line-height: ; font-family: ;">2018</text></svg>